<?xml version="1.0" encoding="iso-8859-1"?>
<!-- Generator: Adobe Illustrator 19.0.0, SVG Export Plug-In . SVG Version: 6.00 Build 0)  -->
<svg version="1.1" id="Layer_1" xmlns="http://www.w3.org/2000/svg" xmlns:xlink="http://www.w3.org/1999/xlink" x="0px" y="0px"
	 viewBox="0 0 512 512" style="enable-background:new 0 0 512 512;" xml:space="preserve">
<path style="fill:#945136;" d="M437.43,129.024c0,9.751-18.842,28.023-18.842,28.023C397.244,118.044,332.527,89.691,256,89.691
	s-141.244,28.353-162.588,67.356c0,0-18.842-18.273-18.842-28.023c0-52.679,87.518-106.769,181.43-106.769
	S437.43,76.345,437.43,129.024z"/>
<path style="fill:#FF6A2E;" d="M392.704,214.437C355.635,235.224,307.086,246.67,256,246.67s-99.635-11.446-136.704-32.233
	c-19.695-11.059-66.981-65.354-66.981-85.413c0,0,0,35.999,0,56.058c0,20.059,6.963,39.902,20.139,57.378
	c11.389,15.098,27.147,28.353,46.842,39.413c37.069,20.787,85.618,32.233,136.704,32.233s99.635-11.446,136.704-32.233
	c19.695-11.059,35.453-24.314,46.842-39.413c13.175-17.476,20.139-37.319,20.139-57.378c0-20.059,0-56.058,0-56.058
	C459.685,149.083,412.399,203.378,392.704,214.437z"/>
<path style="fill:#FFD608;" d="M256,348.183c45.238,0,81.909,36.671,81.909,81.909S301.238,512,256,512
	s-81.909-36.671-81.909-81.909S210.762,348.183,256,348.183z M274.5,394.001c0-10.217-8.283-18.5-18.5-18.5
	c-10.217,0-18.5,8.283-18.5,18.5c0,10.206,8.283,18.489,18.5,18.489C266.217,412.49,274.5,404.207,274.5,394.001z"/>
<path style="fill:#C7A395;" d="M439.546,71.646c13.175,17.476,20.139,37.319,20.139,57.378s-6.963,39.902-20.139,57.378
	c-11.389,15.098-27.147,28.353-46.842,39.413c-37.069,20.787-85.618,32.233-136.704,32.233s-99.635-11.446-136.704-32.233
	c-19.695-11.059-35.453-24.314-46.842-39.413c-13.175-17.476-20.139-37.319-20.139-57.378s6.963-39.902,20.139-57.378
	c11.389-15.098,27.147-28.353,46.842-39.401C156.365,11.446,204.914,0,256,0s99.635,11.446,136.704,32.245
	C412.399,43.292,428.157,56.548,439.546,71.646z M418.588,157.047c4.858-8.863,7.464-18.273,7.464-28.023
	c0-52.679-76.14-95.391-170.052-95.391S85.948,76.345,85.948,129.024c0,9.751,2.606,19.16,7.464,28.023
	c21.333,39.003,86.062,67.368,162.588,67.368S397.255,196.05,418.588,157.047z"/>
<path style="fill:#FFE76D;" d="M256,388.234c-4.714,0-8.533-3.821-8.533-8.533V224.414c0-4.713,3.82-8.533,8.533-8.533
	c4.714,0,8.533,3.821,8.533,8.533V379.7C264.533,384.413,260.714,388.234,256,388.234z"/>
<g>
</g>
<g>
</g>
<g>
</g>
<g>
</g>
<g>
</g>
<g>
</g>
<g>
</g>
<g>
</g>
<g>
</g>
<g>
</g>
<g>
</g>
<g>
</g>
<g>
</g>
<g>
</g>
<g>
</g>
</svg>
