<?xml version="1.0" encoding="iso-8859-1"?>
<!-- Generator: Adobe Illustrator 19.0.0, SVG Export Plug-In . SVG Version: 6.00 Build 0)  -->
<svg version="1.1" id="Layer_1" xmlns="http://www.w3.org/2000/svg" xmlns:xlink="http://www.w3.org/1999/xlink" x="0px" y="0px"
	 viewBox="0 0 512 512" style="enable-background:new 0 0 512 512;" xml:space="preserve">
<path style="fill:#C7A395;" d="M306.267,80.475C299.895,58.732,279.802,42.849,256,42.849s-43.895,15.883-50.267,37.626
	c-49.095,13.653-97.394,43.383-126.089,100.705l29.104,145.431c22.403,0,31.755,28.649,45.522,69.052
	c18.387,53.908,60.245,73.489,101.729,73.489s83.342-19.581,101.729-73.489c13.767-40.402,23.12-69.052,45.522-69.052
	l29.104-145.431C403.661,123.858,355.362,94.128,306.267,80.475z"/>
<path style="fill:#AE7A66;" d="M296.96,401.9c-17.88,0-32.427-14.547-32.427-32.427v-12.211c0-4.713-3.821-8.533-8.533-8.533
	c-4.713,0-8.533,3.821-8.533,8.533v12.211c0,17.88-14.546,32.427-32.427,32.427c-4.713,0-8.533,3.821-8.533,8.533
	s3.821,8.533,8.533,8.533c17.014,0,32.048-8.631,40.96-21.743c8.912,13.112,23.946,21.743,40.96,21.743
	c4.713,0,8.533-3.821,8.533-8.533S301.673,401.9,296.96,401.9z"/>
<path style="fill:#945136;" d="M292.773,345.862L256,368.31l-36.773-22.448c0-12.402,10.058-22.448,22.448-22.448h28.649
	C282.715,323.413,292.773,333.46,292.773,345.862z"/>
<g>
	<path style="fill:#AE7A66;" d="M108.749,326.611v60.052c0,30.026-24.348,54.374-54.374,54.374S0,416.688,0,386.662
		c0-36.25,20.878-88.098,79.644-205.483c16.919,5.723,29.104,21.663,29.104,40.528V326.611z"/>
	<path style="fill:#AE7A66;" d="M512,386.662c0,30.026-24.348,54.374-54.374,54.374c-30.026,0-54.374-24.348-54.374-54.374v-60.052
		V221.707c0-18.864,12.186-34.805,29.104-40.528C491.122,298.564,512,350.413,512,386.662z"/>
</g>
<g>
	<path style="fill:#945136;" d="M199.219,274.48c-4.713,0-8.533-3.821-8.533-8.533v-14.391l-34.463-4.453
		c-4.674-0.604-7.974-4.882-7.369-9.556c0.604-4.674,4.882-7.977,9.556-7.369l41.903,5.414c4.255,0.55,7.44,4.172,7.44,8.463v21.893
		C207.753,270.659,203.932,274.48,199.219,274.48z"/>
	<path style="fill:#945136;" d="M314.527,273.114c-4.713,0-8.533-3.821-8.533-8.533v-19.549c0-4.291,3.185-7.913,7.44-8.463
		l38.91-5.027c4.674-0.605,8.953,2.695,9.556,7.369c0.604,4.674-2.695,8.952-7.369,9.556l-31.47,4.066v12.047
		C323.061,269.294,319.24,273.114,314.527,273.114z"/>
</g>
<g>
</g>
<g>
</g>
<g>
</g>
<g>
</g>
<g>
</g>
<g>
</g>
<g>
</g>
<g>
</g>
<g>
</g>
<g>
</g>
<g>
</g>
<g>
</g>
<g>
</g>
<g>
</g>
<g>
</g>
</svg>
